<svg width="25" height="30" viewBox="0 0 25 30" fill="none" xmlns="http://www.w3.org/2000/svg">
<path fill-rule="evenodd" clip-rule="evenodd" d="M11.7334 19.641C10.9872 19.1765 7.83842 17.2241 7.83842 17.2241C7.83842 17.2241 4.69115 15.2686 3.94391 14.806C3.87254 14.7618 3.78133 14.8117 3.77737 14.8965C3.76914 15.0737 3.75695 15.333 3.75035 15.4778C3.74726 15.5481 3.76488 15.6169 3.80175 15.6764C3.96638 15.9427 4.45147 16.7272 4.69585 17.1229C4.78793 17.2722 4.8154 17.4533 4.77178 17.6237L4.14012 20.0935C4.11486 20.1926 4.14937 20.2969 4.22838 20.3607C4.55398 20.6232 4.95638 20.9121 5.44162 21.2132C5.92656 21.5144 6.36333 21.7464 6.7418 21.9207C6.83359 21.963 6.9408 21.9466 7.01584 21.8785L8.88908 20.1795C9.01847 20.0621 9.18942 20.0042 9.36213 20.0194C9.8199 20.0596 10.7275 20.1397 11.0361 20.1671C11.1052 20.1732 11.174 20.1577 11.234 20.1226C11.3578 20.0505 11.5792 19.9212 11.7303 19.833C11.8027 19.7907 11.8046 19.6854 11.7334 19.641Z" fill="#7159C1"/>
<path fill-rule="evenodd" clip-rule="evenodd" d="M6.43849 22.7651C6.40614 22.5671 6.28102 22.3967 6.10266 22.3073C5.60302 22.0565 5.20572 21.8166 5.09706 21.7498C4.9884 21.6831 4.59493 21.4367 4.14514 21.1036C3.98472 20.9847 3.77695 20.9505 3.58727 21.0119L3.47876 21.047C2.72519 21.2913 2.14453 21.9007 1.93397 22.6691C1.41787 24.5525 0.44624 28.0987 0.00938877 29.693C-0.054867 29.9272 0.225388 30.0994 0.402863 29.9351C1.61196 28.8156 4.30129 26.3255 5.72947 25.0029C6.31219 24.4634 6.58538 23.6649 6.45687 22.8785L6.43849 22.7651Z" fill="#7159C1"/>
<path fill-rule="evenodd" clip-rule="evenodd" d="M24.8755 1.32121C25.1042 1.01475 24.9671 0.782635 24.8649 0.687585C24.8649 0.687585 24.8647 0.687436 24.8646 0.687287C24.7568 0.601771 24.6258 0.540838 24.475 0.517745L21.1616 0.00956758C20.8542 -0.0375107 20.5464 0.0915077 20.3619 0.344628L18.5539 2.82473C18.2757 3.20613 18.371 3.70879 18.6949 3.97905C18.7185 3.99901 18.725 4.03387 18.7086 4.06113C18.6949 4.08363 18.6689 4.09451 18.6446 4.09078L17.7327 3.95089L16.4767 3.75825C16.1271 3.70477 15.7771 3.85122 15.5673 4.1392L10.2823 11.3891C10.2135 11.4834 10.0851 11.5092 9.98602 11.4487L4.8984 8.3396C4.56196 8.13401 4.1229 8.24842 3.92723 8.59615C3.73656 8.93493 3.87201 9.36862 4.20168 9.57019L4.33316 9.65049C4.39824 9.69012 4.43328 9.76551 4.42194 9.84164L4.26749 10.8777C4.25277 10.9772 4.14278 11.0293 4.05783 10.9773C4.05783 10.9773 3.3321 10.5408 3.31354 10.5293C2.71179 10.1566 1.92525 10.348 1.55686 10.9569C1.22882 11.4992 1.34381 12.1888 1.79759 12.5968C1.81158 12.6096 1.94321 12.7121 1.97722 12.7331C1.97796 12.7335 1.97869 12.7341 1.97943 12.7344C1.97958 12.7346 1.97973 12.7347 1.97973 12.7347L5.78035 15.0891C7.83474 16.3446 9.39634 15.3151 9.88384 14.9459C10.3166 14.6182 10.8082 14.2563 11.6283 14.7601C11.9222 14.9408 12.2932 14.9341 12.5892 14.7567L13.5353 14.1895C13.8145 14.0222 14.1621 14.0237 14.4401 14.1934L17.322 15.9547C17.4352 16.0238 17.5818 15.9944 17.6604 15.8867L24.7044 6.23895C25.2789 5.46365 24.8537 5.08658 24.5037 4.99391C24.4812 4.9887 24.4593 4.98229 24.436 4.97871L22.7466 4.71978C22.7217 4.71576 22.6967 4.70503 22.6737 4.69088C22.5801 4.63308 22.5506 4.50883 22.6079 4.41392C23.1805 3.63132 24.8755 1.32121 24.8755 1.32121Z" fill="#7159C1"/>
</svg>
